<?xml version="1.0" encoding="utf-8"?><!-- Uploaded to: SVG Repo, www.svgrepo.com, Generator: SVG Repo Mixer Tools -->
<svg width="800px" height="800px" viewBox="0 0 24 24" fill="none" xmlns="http://www.w3.org/2000/svg">
<path d="M4.2433 17.6513L10.5859 5.67095C11.0445 4.80456 11.2739 4.37136 11.5798 4.22973C11.8463 4.10637 12.1535 4.10637 12.42 4.22973C12.726 4.37136 12.9553 4.80456 13.414 5.67094L19.7565 17.6513C20.1668 18.4263 20.372 18.8138 20.3305 19.13C20.2943 19.4059 20.1448 19.6543 19.9179 19.8154C19.6579 19.9999 19.2194 19.9999 18.3425 19.9999H5.65737C4.78044 19.9999 4.34198 19.9999 4.08198 19.8154C3.85505 19.6543 3.70551 19.4059 3.66932 19.13C3.62785 18.8138 3.833 18.4263 4.2433 17.6513Z" stroke="#000000" stroke-width="2" stroke-linecap="round" stroke-linejoin="round"/>
</svg>